<?xml version="1.0" encoding="UTF-8" standalone="no"?>
<svg
   xmlns:dc="http://purl.org/dc/elements/1.1/"
   xmlns:cc="http://creativecommons.org/ns#"
   xmlns:rdf="http://www.w3.org/1999/02/22-rdf-syntax-ns#"
   xmlns:svg="http://www.w3.org/2000/svg"
   xmlns="http://www.w3.org/2000/svg"
   viewBox="0 0 93.866669 60.893333"
   height="60.893333"
   width="93.866669"
   xml:space="preserve"
   id="svg2"
   version="1.1"><metadata
     id="metadata8"><rdf:RDF><cc:Work
         rdf:about=""><dc:format>image/svg+xml</dc:format><dc:type
           rdf:resource="http://purl.org/dc/dcmitype/StillImage" /></cc:Work></rdf:RDF></metadata><defs
     id="defs6" /><g
     transform="matrix(1.3333333,0,0,-1.3333333,0,60.893333)"
     id="g10"><g
       transform="scale(0.1)"
       id="g12"><path
         id="path14"
         style="fill:#757575;fill-opacity:1;fill-rule:nonzero;stroke:none"
         d="m 265.875,451.063 c -7.867,0 -14.266,-6.395 -14.266,-14.262 V 264.543 c 0,-7.867 6.399,-14.266 14.266,-14.266 h 172.262 c 7.859,0 14.265,6.399 14.265,14.266 v 172.258 c 0,7.867 -6.406,14.262 -14.265,14.262 z M 438.137,244.605 H 265.875 c -10.992,0 -19.937,8.946 -19.937,19.938 v 172.258 c 0,10.992 8.945,19.937 19.937,19.937 h 172.262 c 10.996,0 19.929,-8.945 19.929,-19.937 V 264.543 c 0,-10.992 -8.933,-19.938 -19.929,-19.938" /><path
         id="path16"
         style="fill:#757575;fill-opacity:1;fill-rule:nonzero;stroke:none"
         d="m 511.809,206.465 c -7.864,0 -14.27,-6.399 -14.27,-14.262 V 19.9297 c 0,-7.8594 6.406,-14.26564 14.27,-14.26564 h 172.273 c 7.859,0 14.27,6.40624 14.27,14.26564 V 192.203 c 0,7.863 -6.411,14.262 -14.27,14.262 z M 684.082,0 H 511.809 C 500.813,0 491.875,8.93359 491.875,19.9297 V 192.203 c 0,10.988 8.938,19.934 19.934,19.934 h 172.273 c 10.996,0 19.934,-8.946 19.934,-19.934 V 19.9297 C 704.016,8.93359 695.078,0 684.082,0" /><path
         id="path18"
         style="fill:#757575;fill-opacity:1;fill-rule:nonzero;stroke:none"
         d="m 265.875,206.465 c -7.867,0 -14.266,-6.399 -14.266,-14.262 V 19.9297 c 0,-7.8594 6.399,-14.26564 14.266,-14.26564 h 172.262 c 7.859,0 14.265,6.40624 14.265,14.26564 V 192.203 c 0,7.863 -6.406,14.262 -14.265,14.262 z M 438.137,0 H 265.875 C 254.883,0 245.938,8.93359 245.938,19.9297 V 192.203 c 0,10.988 8.945,19.934 19.937,19.934 h 172.262 c 10.996,0 19.929,-8.946 19.929,-19.934 V 19.9297 C 458.066,8.93359 449.133,0 438.137,0" /><path
         id="path20"
         style="fill:#757575;fill-opacity:1;fill-rule:nonzero;stroke:none"
         d="m 19.9375,206.465 c -7.8672,0 -14.26172,-6.399 -14.26172,-14.262 V 19.9297 c 0,-7.8594 6.39452,-14.26564 14.26172,-14.26564 H 192.195 c 7.868,0 14.266,6.40624 14.266,14.26564 V 192.203 c 0,7.863 -6.398,14.262 -14.266,14.262 z M 192.195,0 H 19.9375 C 8.94531,0 0,8.93359 0,19.9297 V 192.203 c 0,10.988 8.94531,19.934 19.9375,19.934 H 192.195 c 10.993,0 19.938,-8.946 19.938,-19.934 V 19.9297 C 212.133,8.93359 203.188,0 192.195,0" /><path
         id="path22"
         style="fill:#757575;fill-opacity:1;fill-rule:nonzero;stroke:none"
         d="M 89.6836,79.3438 V 132.781 L 44.8047,104.988 Z" /><path
         id="path24"
         style="fill:#757575;fill-opacity:1;fill-rule:nonzero;stroke:none"
         d="M 160.918,111.758 H 84.6914 v -11.399 h 76.2266 v 11.399" /><path
         id="path26"
         style="fill:#757575;fill-opacity:1;fill-rule:nonzero;stroke:none"
         d="M 375.52,92.8906 H 322.086 L 349.867,48.0078 Z" /><path
         id="path28"
         style="fill:#757575;fill-opacity:1;fill-rule:nonzero;stroke:none"
         d="M 343.105,164.121 V 87.8984 h 11.399 v 76.2226 h -11.399" /><path
         id="path30"
         style="fill:#757575;fill-opacity:1;fill-rule:nonzero;stroke:none"
         d="M 607.922,132.781 V 79.3438 l 44.871,27.7932 z" /><path
         id="path32"
         style="fill:#757575;fill-opacity:1;fill-rule:nonzero;stroke:none"
         d="m 536.68,100.371 h 76.218 v 11.395 H 536.68 v -11.395" /><path
         id="path34"
         style="fill:#757575;fill-opacity:1;fill-rule:nonzero;stroke:none"
         d="M 322.086,363.852 H 375.52 L 347.73,408.73 Z" /><path
         id="path36"
         style="fill:#757575;fill-opacity:1;fill-rule:nonzero;stroke:none"
         d="m 354.496,292.613 v 76.231 h -11.394 v -76.231 h 11.394" /></g></g></svg>